<svg width="459" height="161" viewBox="0 0 459 161" fill="none" xmlns="http://www.w3.org/2000/svg">
<rect x="1.5" y="19.3496" width="292.8" height="68.4" fill="white" stroke="black" stroke-width="3"/>
<rect x="196.85" y="92.2998" width="261.65" height="67.85" fill="black" stroke="black"/>
<rect x="10.2002" y="10.2002" width="295.8" height="71.4" fill="black"/>
<path d="M48.9896 23.88V32.1H31.8296V40.98H44.6696V48.96H31.8296V66H21.5696V23.88H48.9896ZM64.6421 32.1V40.62H78.3821V48.54H64.6421V57.78H80.1821V66H54.3821V23.88H80.1821V32.1H64.6421ZM102.083 66.42C99.003 66.42 96.243 65.92 93.803 64.92C91.363 63.92 89.403 62.44 87.923 60.48C86.483 58.52 85.723 56.16 85.643 53.4H96.563C96.723 54.96 97.263 56.16 98.183 57C99.103 57.8 100.303 58.2 101.783 58.2C103.303 58.2 104.503 57.86 105.383 57.18C106.263 56.46 106.703 55.48 106.703 54.24C106.703 53.2 106.343 52.34 105.623 51.66C104.943 50.98 104.083 50.42 103.043 49.98C102.043 49.54 100.603 49.04 98.723 48.48C96.003 47.64 93.783 46.8 92.063 45.96C90.343 45.12 88.863 43.88 87.623 42.24C86.383 40.6 85.763 38.46 85.763 35.82C85.763 31.9 87.183 28.84 90.023 26.64C92.863 24.4 96.563 23.28 101.123 23.28C105.763 23.28 109.503 24.4 112.343 26.64C115.183 28.84 116.703 31.92 116.903 35.88H105.803C105.723 34.52 105.223 33.46 104.303 32.7C103.383 31.9 102.203 31.5 100.763 31.5C99.523 31.5 98.523 31.84 97.763 32.52C97.003 33.16 96.623 34.1 96.623 35.34C96.623 36.7 97.263 37.76 98.543 38.52C99.823 39.28 101.823 40.1 104.543 40.98C107.263 41.9 109.463 42.78 111.143 43.62C112.863 44.46 114.343 45.68 115.583 47.28C116.823 48.88 117.443 50.94 117.443 53.46C117.443 55.86 116.823 58.04 115.583 60C114.383 61.96 112.623 63.52 110.303 64.68C107.983 65.84 105.243 66.42 102.083 66.42ZM154.057 23.88V32.1H142.897V66H132.637V32.1H121.477V23.88H154.057ZM169.466 23.88V66H159.206V23.88H169.466ZM216.442 23.88L201.502 66H188.662L173.722 23.88H184.642L195.082 55.68L205.582 23.88H216.442ZM246.95 58.56H231.23L228.71 66H217.97L233.21 23.88H245.09L260.33 66H249.47L246.95 58.56ZM244.31 50.64L239.09 35.22L233.93 50.64H244.31ZM275.228 58.08H288.668V66H264.968V23.88H275.228V58.08Z" fill="white"/>
<rect x="190.2" y="80.5498" width="259.65" height="68.4" fill="white" stroke="black" stroke-width="3"/>
<path d="M220.95 92.7296C225.39 92.7296 229.27 93.6096 232.59 95.3696C235.91 97.1296 238.47 99.6096 240.27 102.81C242.11 105.97 243.03 109.63 243.03 113.79C243.03 117.91 242.11 121.57 240.27 124.77C238.47 127.97 235.89 130.45 232.53 132.21C229.21 133.97 225.35 134.85 220.95 134.85H205.17V92.7296H220.95ZM220.29 125.97C224.17 125.97 227.19 124.91 229.35 122.79C231.51 120.67 232.59 117.67 232.59 113.79C232.59 109.91 231.51 106.89 229.35 104.73C227.19 102.57 224.17 101.49 220.29 101.49H215.43V125.97H220.29ZM259.024 92.7296V134.85H248.764V92.7296H259.024ZM294.419 106.05C293.659 104.65 292.559 103.59 291.119 102.87C289.719 102.11 288.059 101.73 286.139 101.73C282.819 101.73 280.159 102.83 278.159 105.03C276.159 107.19 275.159 110.09 275.159 113.73C275.159 117.61 276.199 120.65 278.279 122.85C280.399 125.01 283.299 126.09 286.979 126.09C289.499 126.09 291.619 125.45 293.339 124.17C295.099 122.89 296.379 121.05 297.179 118.65H284.159V111.09H306.479V120.63C305.719 123.19 304.419 125.57 302.579 127.77C300.779 129.97 298.479 131.75 295.679 133.11C292.879 134.47 289.719 135.15 286.199 135.15C282.039 135.15 278.319 134.25 275.039 132.45C271.799 130.61 269.259 128.07 267.419 124.83C265.619 121.59 264.719 117.89 264.719 113.73C264.719 109.57 265.619 105.87 267.419 102.63C269.259 99.3496 271.799 96.8096 275.039 95.0096C278.279 93.1696 281.979 92.2496 286.139 92.2496C291.179 92.2496 295.419 93.4696 298.859 95.9096C302.339 98.3496 304.639 101.73 305.759 106.05H294.419ZM322.422 92.7296V134.85H312.162V92.7296H322.422ZM360.158 92.7296V100.95H348.998V134.85H338.738V100.95H327.578V92.7296H360.158ZM391.527 127.41H375.807L373.287 134.85H362.547L377.787 92.7296H389.667L404.907 134.85H394.047L391.527 127.41ZM388.887 119.49L383.667 104.07L378.507 119.49H388.887ZM419.805 126.93H433.245V134.85H409.545V92.7296H419.805V126.93Z" fill="black"/>
</svg>
