<svg width="23" height="23" viewBox="0 0 23 23" fill="none" xmlns="http://www.w3.org/2000/svg">
<path d="M9.32469 7.55387e-09C11.0629 -6.99424e-05 12.7665 0.485672 14.2433 1.40241C15.72 2.31915 16.9112 3.63039 17.6823 5.18816C18.4535 6.74593 18.7739 8.48823 18.6074 10.2184C18.4409 11.9486 17.7941 13.5978 16.7401 14.98L22.6373 20.8797C22.8603 21.1035 22.9898 21.4037 22.9994 21.7194C23.0091 22.0352 22.8982 22.3428 22.6892 22.5797C22.4803 22.8167 22.189 22.9652 21.8745 22.9951C21.5601 23.0251 21.246 22.9342 20.9961 22.741L20.8792 22.6378L14.9795 16.7406C13.802 17.6384 12.4277 18.2429 10.9702 18.5041C9.51271 18.7653 8.01398 18.6757 6.59801 18.2427C5.18204 17.8096 3.88954 17.0456 2.82747 16.0139C1.7654 14.9821 0.964284 13.7123 0.490421 12.3095C0.0165575 10.9066 -0.116433 9.41112 0.102452 7.94668C0.321338 6.48224 0.885808 5.09098 1.74915 3.88801C2.6125 2.68505 3.7499 1.70496 5.06724 1.02886C6.38458 0.352759 7.84398 7.81513e-05 9.32469 7.55387e-09ZM9.32469 2.48672C7.51102 2.48672 5.77163 3.20719 4.48916 4.48966C3.2067 5.77212 2.48622 7.51151 2.48622 9.32518C2.48622 11.1389 3.2067 12.8782 4.48916 14.1607C5.77163 15.4432 7.51102 16.1636 9.32469 16.1636C11.1384 16.1636 12.8778 15.4432 14.1602 14.1607C15.4427 12.8782 16.1632 11.1389 16.1632 9.32518C16.1632 7.51151 15.4427 5.77212 14.1602 4.48966C12.8778 3.20719 11.1384 2.48672 9.32469 2.48672Z" fill="black"/>
</svg>
