{
	"textures":[{
		"sampler":0,
		"source":0
	},
	{
		"sampler":1,
		"source":1
	},
	{
		"sampler":2,
		"source":2
	},
	{
		"sampler":3,
		"source":3
	},
	{
		"sampler":4,
		"source":4
	},
	{
		"sampler":5,
		"source":5
	},
	{
		"sampler":6,
		"source":6
	},
	{
		"sampler":7,
		"source":7
	}],
	"asset":{
		"version":"2.0",
		"generator":"Created using the official Cinema 4D glTF Exporter 1.000x284978"
	},
	"scenes":[{
		"nodes":[0]
	}],
	"nodes":[{
		"name":"Platonic",
		"translation":[119.87211608886719,
		164.56056213378907,
		48.48041915893555],
		"scale":[1.0,
		1.0,
		1.0],
		"rotation":[0.0,
		0.0,
		0.0,
		-1.0],
		"children":[1,
		2,
		3,
		4,
		5,
		6,
		7,
		8]
	},
	{
		"name":"Platonic-Mat.8",
		"translation":[0.0,
		0.0,
		0.0],
		"scale":[1.0,
		1.0,
		1.0],
		"rotation":[0.0,
		0.0,
		0.0,
		-1.0],
		"mesh":0
	},
	{
		"name":"Platonic-Mat.7",
		"translation":[0.0,
		0.0,
		0.0],
		"scale":[1.0,
		1.0,
		1.0],
		"rotation":[0.0,
		0.0,
		0.0,
		-1.0],
		"mesh":1
	},
	{
		"name":"Platonic-Mat.3",
		"translation":[0.0,
		0.0,
		0.0],
		"scale":[1.0,
		1.0,
		1.0],
		"rotation":[0.0,
		0.0,
		0.0,
		-1.0],
		"mesh":2
	},
	{
		"name":"Platonic-Mat.6",
		"translation":[0.0,
		0.0,
		0.0],
		"scale":[1.0,
		1.0,
		1.0],
		"rotation":[0.0,
		0.0,
		0.0,
		-1.0],
		"mesh":3
	},
	{
		"name":"Platonic-Mat.4",
		"translation":[0.0,
		0.0,
		0.0],
		"scale":[1.0,
		1.0,
		1.0],
		"rotation":[0.0,
		0.0,
		0.0,
		-1.0],
		"mesh":4
	},
	{
		"name":"Platonic-Mat.2",
		"translation":[0.0,
		0.0,
		0.0],
		"scale":[1.0,
		1.0,
		1.0],
		"rotation":[0.0,
		0.0,
		0.0,
		-1.0],
		"mesh":5
	},
	{
		"name":"Platonic-Mat",
		"translation":[0.0,
		0.0,
		0.0],
		"scale":[1.0,
		1.0,
		1.0],
		"rotation":[0.0,
		0.0,
		0.0,
		-1.0],
		"mesh":6
	},
	{
		"name":"Platonic-Mat.1",
		"translation":[0.0,
		0.0,
		0.0],
		"scale":[1.0,
		1.0,
		1.0],
		"rotation":[0.0,
		0.0,
		0.0,
		-1.0],
		"mesh":7
	}],
	"meshes":[{
		"name":"Platonic-Mat.8",
		"primitives":[{
			"attributes":{
				"POSITION":1,
				"NORMAL":2
			},
			"indices":0,
			"material":0
		}]
	},
	{
		"name":"Platonic-Mat.7",
		"primitives":[{
			"attributes":{
				"POSITION":4,
				"NORMAL":5
			},
			"indices":3,
			"material":1
		}]
	},
	{
		"name":"Platonic-Mat.3",
		"primitives":[{
			"attributes":{
				"POSITION":7,
				"NORMAL":8
			},
			"indices":6,
			"material":2
		}]
	},
	{
		"name":"Platonic-Mat.6",
		"primitives":[{
			"attributes":{
				"POSITION":10,
				"NORMAL":11
			},
			"indices":9,
			"material":3
		}]
	},
	{
		"name":"Platonic-Mat.4",
		"primitives":[{
			"attributes":{
				"POSITION":13,
				"NORMAL":14
			},
			"indices":12,
			"material":4
		}]
	},
	{
		"name":"Platonic-Mat.2",
		"primitives":[{
			"attributes":{
				"POSITION":16,
				"NORMAL":17
			},
			"indices":15,
			"material":5
		}]
	},
	{
		"name":"Platonic-Mat",
		"primitives":[{
			"attributes":{
				"POSITION":19,
				"NORMAL":20
			},
			"indices":18,
			"material":6
		}]
	},
	{
		"name":"Platonic-Mat.1",
		"primitives":[{
			"attributes":{
				"POSITION":22,
				"NORMAL":23
			},
			"indices":21,
			"material":7
		}]
	}],
	"accessors":[{
		"bufferView":0,
		"type":"SCALAR",
		"count":3,
		"componentType":5123,
		"byteOffset":0,
		"min":[0],
		"max":[2]
	},
	{
		"bufferView":1,
		"type":"VEC3",
		"count":3,
		"componentType":5126,
		"byteOffset":0,
		"min":[-273.1181945800781,
		-273.1181945800781,
		-273.1181945800781],
		"max":[0.0,
		0.0,
		0.0]
	},
	{
		"bufferView":1,
		"type":"VEC3",
		"count":3,
		"componentType":5126,
		"byteOffset":12,
		"min":[-0.5773125290870667,
		-0.577343761920929,
		-0.577343761920929],
		"max":[-0.5773125290870667,
		-0.577343761920929,
		-0.577343761920929]
	},
	{
		"bufferView":2,
		"type":"SCALAR",
		"count":3,
		"componentType":5123,
		"byteOffset":0,
		"min":[0],
		"max":[2]
	},
	{
		"bufferView":3,
		"type":"VEC3",
		"count":3,
		"componentType":5126,
		"byteOffset":0,
		"min":[0.0,
		0.0,
		-273.1181945800781],
		"max":[273.1181945800781,
		273.1181945800781,
		0.0]
	},
	{
		"bufferView":3,
		"type":"VEC3",
		"count":3,
		"componentType":5126,
		"byteOffset":12,
		"min":[0.5773125290870667,
		0.577343761920929,
		-0.577343761920929],
		"max":[0.5773125290870667,
		0.577343761920929,
		-0.577343761920929]
	},
	{
		"bufferView":4,
		"type":"SCALAR",
		"count":3,
		"componentType":5123,
		"byteOffset":0,
		"min":[0],
		"max":[2]
	},
	{
		"bufferView":5,
		"type":"VEC3",
		"count":3,
		"componentType":5126,
		"byteOffset":0,
		"min":[-273.1181945800781,
		0.0,
		0.0],
		"max":[0.0,
		273.1181945800781,
		273.1181945800781]
	},
	{
		"bufferView":5,
		"type":"VEC3",
		"count":3,
		"componentType":5126,
		"byteOffset":12,
		"min":[-0.5773125290870667,
		0.577343761920929,
		0.577343761920929],
		"max":[-0.5773125290870667,
		0.577343761920929,
		0.577343761920929]
	},
	{
		"bufferView":6,
		"type":"SCALAR",
		"count":3,
		"componentType":5123,
		"byteOffset":0,
		"min":[0],
		"max":[2]
	},
	{
		"bufferView":7,
		"type":"VEC3",
		"count":3,
		"componentType":5126,
		"byteOffset":0,
		"min":[0.0,
		-273.1181945800781,
		-273.1181945800781],
		"max":[273.1181945800781,
		0.0,
		0.0]
	},
	{
		"bufferView":7,
		"type":"VEC3",
		"count":3,
		"componentType":5126,
		"byteOffset":12,
		"min":[0.5773125290870667,
		-0.577343761920929,
		-0.577343761920929],
		"max":[0.5773125290870667,
		-0.577343761920929,
		-0.577343761920929]
	},
	{
		"bufferView":8,
		"type":"SCALAR",
		"count":3,
		"componentType":5123,
		"byteOffset":0,
		"min":[0],
		"max":[2]
	},
	{
		"bufferView":9,
		"type":"VEC3",
		"count":3,
		"componentType":5126,
		"byteOffset":0,
		"min":[-273.1181945800781,
		0.0,
		-273.1181945800781],
		"max":[0.0,
		273.1181945800781,
		0.0]
	},
	{
		"bufferView":9,
		"type":"VEC3",
		"count":3,
		"componentType":5126,
		"byteOffset":12,
		"min":[-0.5773125290870667,
		0.577343761920929,
		-0.577343761920929],
		"max":[-0.5773125290870667,
		0.577343761920929,
		-0.577343761920929]
	},
	{
		"bufferView":10,
		"type":"SCALAR",
		"count":3,
		"componentType":5123,
		"byteOffset":0,
		"min":[0],
		"max":[2]
	},
	{
		"bufferView":11,
		"type":"VEC3",
		"count":3,
		"componentType":5126,
		"byteOffset":0,
		"min":[-273.1181945800781,
		-273.1181945800781,
		0.0],
		"max":[0.0,
		0.0,
		273.1181945800781]
	},
	{
		"bufferView":11,
		"type":"VEC3",
		"count":3,
		"componentType":5126,
		"byteOffset":12,
		"min":[-0.5773125290870667,
		-0.577343761920929,
		0.577343761920929],
		"max":[-0.5773125290870667,
		-0.577343761920929,
		0.577343761920929]
	},
	{
		"bufferView":12,
		"type":"SCALAR",
		"count":3,
		"componentType":5123,
		"byteOffset":0,
		"min":[0],
		"max":[2]
	},
	{
		"bufferView":13,
		"type":"VEC3",
		"count":3,
		"componentType":5126,
		"byteOffset":0,
		"min":[0.0,
		0.0,
		0.0],
		"max":[273.1181945800781,
		273.1181945800781,
		273.1181945800781]
	},
	{
		"bufferView":13,
		"type":"VEC3",
		"count":3,
		"componentType":5126,
		"byteOffset":12,
		"min":[0.5773125290870667,
		0.577343761920929,
		0.577343761920929],
		"max":[0.5773125290870667,
		0.577343761920929,
		0.577343761920929]
	},
	{
		"bufferView":14,
		"type":"SCALAR",
		"count":3,
		"componentType":5123,
		"byteOffset":0,
		"min":[0],
		"max":[2]
	},
	{
		"bufferView":15,
		"type":"VEC3",
		"count":3,
		"componentType":5126,
		"byteOffset":0,
		"min":[0.0,
		-273.1181945800781,
		0.0],
		"max":[273.1181945800781,
		0.0,
		273.1181945800781]
	},
	{
		"bufferView":15,
		"type":"VEC3",
		"count":3,
		"componentType":5126,
		"byteOffset":12,
		"min":[0.5773125290870667,
		-0.577343761920929,
		0.577343761920929],
		"max":[0.5773125290870667,
		-0.577343761920929,
		0.577343761920929]
	}],
	"bufferViews":[{
		"buffer":0,
		"byteOffset":0,
		"byteLength":6,
		"target":34963
	},
	{
		"buffer":0,
		"byteOffset":8,
		"byteLength":72,
		"target":34962,
		"byteStride":24
	},
	{
		"buffer":1,
		"byteOffset":0,
		"byteLength":6,
		"target":34963
	},
	{
		"buffer":1,
		"byteOffset":8,
		"byteLength":72,
		"target":34962,
		"byteStride":24
	},
	{
		"buffer":2,
		"byteOffset":0,
		"byteLength":6,
		"target":34963
	},
	{
		"buffer":2,
		"byteOffset":8,
		"byteLength":72,
		"target":34962,
		"byteStride":24
	},
	{
		"buffer":3,
		"byteOffset":0,
		"byteLength":6,
		"target":34963
	},
	{
		"buffer":3,
		"byteOffset":8,
		"byteLength":72,
		"target":34962,
		"byteStride":24
	},
	{
		"buffer":4,
		"byteOffset":0,
		"byteLength":6,
		"target":34963
	},
	{
		"buffer":4,
		"byteOffset":8,
		"byteLength":72,
		"target":34962,
		"byteStride":24
	},
	{
		"buffer":5,
		"byteOffset":0,
		"byteLength":6,
		"target":34963
	},
	{
		"buffer":5,
		"byteOffset":8,
		"byteLength":72,
		"target":34962,
		"byteStride":24
	},
	{
		"buffer":6,
		"byteOffset":0,
		"byteLength":6,
		"target":34963
	},
	{
		"buffer":6,
		"byteOffset":8,
		"byteLength":72,
		"target":34962,
		"byteStride":24
	},
	{
		"buffer":7,
		"byteOffset":0,
		"byteLength":6,
		"target":34963
	},
	{
		"buffer":7,
		"byteOffset":8,
		"byteLength":72,
		"target":34962,
		"byteStride":24
	}],
	"buffers":[{
		"uri":"data:application/octet-stream;base64,",
		"byteLength":80
	},
	{
		"uri":"data:application/octet-stream;base64,",
		"byteLength":80
	},
	{
		"uri":"data:application/octet-stream;base64,",
		"byteLength":80
	},
	{
		"uri":"data:application/octet-stream;base64,",
		"byteLength":80
	},
	{
		"uri":"data:application/octet-stream;base64,",
		"byteLength":80
	},
	{
		"uri":"data:application/octet-stream;base64,",
		"byteLength":80
	},
	{
		"uri":"data:application/octet-stream;base64,",
		"byteLength":80
	},
	{
		"uri":"data:application/octet-stream;base64,",
		"byteLength":80
	}],
	"images":[{
		"uri":"data:image/jpeg;base64,"
	},
	{
		"uri":"data:image/jpeg;base64,"
	},
	{
		"uri":"data:image/jpeg;base64,"
	},
	{
		"uri":"data:image/jpeg;base64,"
	},
	{
		"uri":"data:image/jpeg;base64,"
	},
	{
		"uri":"data:image/jpeg;base64,"
	},
	{
		"uri":"data:image/jpeg;base64,"
	},
	{
		"uri":"data:image/jpeg;base64,"
	}],
	"samplers":[{
		"magFilter":9729,
		"minFilter":9729,
		"wrapS":10497,
		"wrapT":10497
	},
	{
		"magFilter":9729,
		"minFilter":9729,
		"wrapS":10497,
		"wrapT":10497
	},
	{
		"magFilter":9729,
		"minFilter":9729,
		"wrapS":10497,
		"wrapT":10497
	},
	{
		"magFilter":9729,
		"minFilter":9729,
		"wrapS":10497,
		"wrapT":10497
	},
	{
		"magFilter":9729,
		"minFilter":9729,
		"wrapS":10497,
		"wrapT":10497
	},
	{
		"magFilter":9729,
		"minFilter":9729,
		"wrapS":10497,
		"wrapT":10497
	},
	{
		"magFilter":9729,
		"minFilter":9729,
		"wrapS":10497,
		"wrapT":10497
	},
	{
		"magFilter":9729,
		"minFilter":9729,
		"wrapS":10497,
		"wrapT":10497
	}],
	"materials":[{
		"pbrMetallicRoughness":{
			"baseColorTexture":{
				"index":0
			},
			"baseColorFactor":[0.0,
			0.0,
			0.0,
			1.0],
			"metallicFactor":0.0,
			"roughnessFactor":0.5
		},
		"emissiveFactor":[0.0,
		0.0,
		0.0],
		"alphaMode":"OPAQUE",
		"doubleSided":false,
		"name":"Mat.8"
	},
	{
		"pbrMetallicRoughness":{
			"baseColorTexture":{
				"index":1
			},
			"baseColorFactor":[0.0,
			0.0,
			0.0,
			1.0],
			"metallicFactor":0.0,
			"roughnessFactor":0.5
		},
		"emissiveFactor":[0.0,
		0.0,
		0.0],
		"alphaMode":"OPAQUE",
		"doubleSided":false,
		"name":"Mat.7"
	},
	{
		"pbrMetallicRoughness":{
			"baseColorTexture":{
				"index":2
			},
			"baseColorFactor":[0.0,
			0.0,
			0.0,
			1.0],
			"metallicFactor":0.0,
			"roughnessFactor":0.5
		},
		"emissiveFactor":[0.0,
		0.0,
		0.0],
		"alphaMode":"OPAQUE",
		"doubleSided":false,
		"name":"Mat.3"
	},
	{
		"pbrMetallicRoughness":{
			"baseColorTexture":{
				"index":3
			},
			"baseColorFactor":[1.0,
			1.0,
			1.0,
			1.0],
			"metallicFactor":0.0,
			"roughnessFactor":0.5
		},
		"emissiveFactor":[0.0,
		0.0,
		0.0],
		"alphaMode":"OPAQUE",
		"doubleSided":false,
		"name":"Mat.6"
	},
	{
		"pbrMetallicRoughness":{
			"baseColorTexture":{
				"index":4
			},
			"baseColorFactor":[1.0,
			1.0,
			1.0,
			1.0],
			"metallicFactor":0.0,
			"roughnessFactor":0.5
		},
		"emissiveFactor":[0.0,
		0.0,
		0.0],
		"alphaMode":"OPAQUE",
		"doubleSided":false,
		"name":"Mat.4"
	},
	{
		"pbrMetallicRoughness":{
			"baseColorTexture":{
				"index":5
			},
			"baseColorFactor":[0.8,
			0.8,
			0.8,
			1.0],
			"metallicFactor":0.0,
			"roughnessFactor":0.5
		},
		"emissiveFactor":[0.0,
		0.0,
		0.0],
		"alphaMode":"OPAQUE",
		"doubleSided":false,
		"name":"Mat.2"
	},
	{
		"pbrMetallicRoughness":{
			"baseColorTexture":{
				"index":6
			},
			"baseColorFactor":[0.8,
			0.8,
			0.8,
			1.0],
			"metallicFactor":0.0,
			"roughnessFactor":0.5
		},
		"emissiveFactor":[0.0,
		0.0,
		0.0],
		"alphaMode":"OPAQUE",
		"doubleSided":false,
		"name":"Mat"
	},
	{
		"pbrMetallicRoughness":{
			"baseColorTexture":{
				"index":7
			},
			"baseColorFactor":[0.0,
			0.0,
			0.0,
			1.0],
			"metallicFactor":0.0,
			"roughnessFactor":0.5
		},
		"emissiveFactor":[0.0,
		0.0,
		0.0],
		"alphaMode":"OPAQUE",
		"doubleSided":false,
		"name":"Mat.1"
	}]
}