<svg width="18" height="27" viewBox="0 0 18 27" fill="none" xmlns="http://www.w3.org/2000/svg">
<path d="M9.34493 0.0649414C11.8416 0.0649414 13.8366 0.718275 15.3299 2.02494C16.8466 3.33161 17.6049 5.17494 17.6049 7.55494C17.6049 9.74828 16.8816 11.4633 15.4349 12.6999C14.0116 13.9133 12.1216 14.5316 9.76493 14.5549L9.58993 17.1799H4.33993L4.16493 10.6699H6.26493C8.06159 10.6699 9.42659 10.4483 10.3599 10.0049C11.3166 9.56161 11.7949 8.75661 11.7949 7.58994C11.7949 6.77328 11.5733 6.13161 11.1299 5.66494C10.6866 5.19828 10.0683 4.96494 9.27493 4.96494C8.43493 4.96494 7.78159 5.20994 7.31493 5.69994C6.84826 6.16661 6.61493 6.80828 6.61493 7.62494H0.979925C0.933259 6.20161 1.22493 4.91828 1.85493 3.77494C2.50826 2.63161 3.46493 1.73328 4.72493 1.07994C6.00826 0.403275 7.54826 0.0649414 9.34493 0.0649414ZM7.03493 26.2799C5.98493 26.2799 5.12159 25.9766 4.44493 25.3699C3.79159 24.7399 3.46493 23.9699 3.46493 23.0599C3.46493 22.1266 3.79159 21.3449 4.44493 20.7149C5.12159 20.0849 5.98493 19.7699 7.03493 19.7699C8.06159 19.7699 8.90159 20.0849 9.55492 20.7149C10.2316 21.3449 10.5699 22.1266 10.5699 23.0599C10.5699 23.9699 10.2316 24.7399 9.55492 25.3699C8.90159 25.9766 8.06159 26.2799 7.03493 26.2799Z" fill="black"/>
</svg>
