<svg width="105" height="104" viewBox="0 0 105 104" fill="none" xmlns="http://www.w3.org/2000/svg">
<rect x="7.5" y="6.5" width="96" height="96" fill="black" stroke="black" stroke-width="3"/>
<rect x="1.5" y="1.5" width="96" height="96" fill="white" stroke="black" stroke-width="3"/>
<path d="M60.134 49.8747C60.134 55.452 55.7453 59.9027 50.4176 59.9027C45.0898 59.9027 40.7012 55.452 40.7012 49.8747C40.7012 44.2974 45.0898 39.8467 50.4176 39.8467C55.7453 39.8467 60.134 44.2974 60.134 49.8747Z" stroke="black" stroke-width="3"/>
<path d="M50.4179 29C34.2283 29 25.3936 42.8007 23 49.701C24.8496 56.7174 32.9227 70.75 50.4179 70.75C67.9132 70.75 75.9862 56.7174 77.8358 49.701C75.4422 42.8007 66.6075 29 50.4179 29Z" stroke="black" stroke-width="3"/>
</svg>
