<svg width="23" height="23" viewBox="0 0 23 23" fill="none" xmlns="http://www.w3.org/2000/svg">
<path d="M20.4444 12.7778V19.1667C20.4444 19.8694 19.8694 20.4444 19.1667 20.4444H3.83333C3.13056 20.4444 2.55556 19.8694 2.55556 19.1667V12.7778C2.55556 12.075 1.98056 11.5 1.27778 11.5C0.575 11.5 0 12.075 0 12.7778V20.4444C0 21.85 1.15 23 2.55556 23H20.4444C21.85 23 23 21.85 23 20.4444V12.7778C23 12.075 22.425 11.5 21.7222 11.5C21.0194 11.5 20.4444 12.075 20.4444 12.7778ZM12.7778 12.3561L15.18 9.95389C15.2983 9.83559 15.4387 9.74175 15.5933 9.67773C15.7479 9.6137 15.9135 9.58075 16.0808 9.58075C16.2481 9.58075 16.4138 9.6137 16.5684 9.67773C16.7229 9.74175 16.8634 9.83559 16.9817 9.95389C17.1 10.0722 17.1938 10.2126 17.2578 10.3672C17.3219 10.5218 17.3548 10.6874 17.3548 10.8547C17.3548 11.022 17.3219 11.1877 17.2578 11.3422C17.1938 11.4968 17.1 11.6373 16.9817 11.7556L12.3944 16.3428C12.2762 16.4612 12.1358 16.5552 11.9812 16.6193C11.8267 16.6835 11.661 16.7165 11.4936 16.7165C11.3263 16.7165 11.1606 16.6835 11.006 16.6193C10.8514 16.5552 10.711 16.4612 10.5928 16.3428L6.00556 11.7556C5.76664 11.5166 5.63242 11.1926 5.63242 10.8547C5.63242 10.5168 5.76664 10.1928 6.00556 9.95389C6.24447 9.71497 6.56851 9.58075 6.90639 9.58075C7.24427 9.58075 7.56831 9.71497 7.80722 9.95389L10.2222 12.3561V1.27778C10.2222 0.575 10.7972 0 11.5 0C12.2028 0 12.7778 0.575 12.7778 1.27778V12.3561Z" fill="black"/>
</svg>
