<svg xmlns="http://www.w3.org/2000/svg" viewBox="0 0 1162.35 666.2"><defs><style>.cls-1{fill:none;stroke:#1d1d1b;stroke-miterlimit:10;stroke-width:2px;}</style></defs><g id="Layer_2" data-name="Layer 2"><g id="Layer_2-2" data-name="Layer 2"><line class="cls-1" y1="1" x2="1162.35" y2="1"/><line class="cls-1" y1="45.28" x2="1162.35" y2="45.28"/><line class="cls-1" y1="89.56" x2="1162.35" y2="89.56"/><line class="cls-1" y1="133.84" x2="1162.35" y2="133.84"/><line class="cls-1" y1="178.12" x2="1162.35" y2="178.12"/><line class="cls-1" y1="222.4" x2="1162.35" y2="222.4"/><line class="cls-1" y1="266.68" x2="1162.35" y2="266.68"/><line class="cls-1" y1="310.96" x2="1162.35" y2="310.96"/><line class="cls-1" y1="355.24" x2="1162.35" y2="355.24"/><line class="cls-1" y1="399.52" x2="1162.35" y2="399.52"/><line class="cls-1" y1="443.8" x2="1162.35" y2="443.8"/><line class="cls-1" y1="488.08" x2="1162.35" y2="488.08"/><line class="cls-1" y1="532.36" x2="1162.35" y2="532.36"/><line class="cls-1" y1="576.64" x2="1162.35" y2="576.64"/><line class="cls-1" y1="620.92" x2="1162.35" y2="620.92"/><line class="cls-1" y1="665.2" x2="1162.35" y2="665.2"/><line class="cls-1" x1="43.05" y1="1" x2="43.05" y2="665.2"/><line class="cls-1" x1="86.1" y1="1" x2="86.1" y2="665.2"/><line class="cls-1" x1="129.15" y1="1" x2="129.15" y2="665.2"/><line class="cls-1" x1="172.2" y1="1" x2="172.2" y2="665.2"/><line class="cls-1" x1="215.25" y1="1" x2="215.25" y2="665.2"/><line class="cls-1" x1="258.3" y1="1" x2="258.3" y2="665.2"/><line class="cls-1" x1="301.35" y1="1" x2="301.35" y2="665.2"/><line class="cls-1" x1="344.4" y1="1" x2="344.4" y2="665.2"/><line class="cls-1" x1="387.45" y1="1" x2="387.45" y2="665.2"/><line class="cls-1" x1="430.5" y1="1" x2="430.5" y2="665.2"/><line class="cls-1" x1="473.55" y1="1" x2="473.55" y2="665.2"/><line class="cls-1" x1="516.6" y1="1" x2="516.6" y2="665.2"/><line class="cls-1" x1="559.65" y1="1" x2="559.65" y2="665.2"/><line class="cls-1" x1="602.7" y1="1" x2="602.7" y2="665.2"/><line class="cls-1" x1="645.75" y1="1" x2="645.75" y2="665.2"/><line class="cls-1" x1="688.8" y1="1" x2="688.8" y2="665.2"/><line class="cls-1" x1="731.85" y1="1" x2="731.85" y2="665.2"/><line class="cls-1" x1="774.9" y1="1" x2="774.9" y2="665.2"/><line class="cls-1" x1="817.95" y1="1" x2="817.95" y2="665.2"/><line class="cls-1" x1="861" y1="1" x2="861" y2="665.2"/><line class="cls-1" x1="904.05" y1="1" x2="904.05" y2="665.2"/><line class="cls-1" x1="947.1" y1="1" x2="947.1" y2="665.2"/><line class="cls-1" x1="990.15" y1="1" x2="990.15" y2="665.2"/><line class="cls-1" x1="1033.2" y1="1" x2="1033.2" y2="665.2"/><line class="cls-1" x1="1076.25" y1="1" x2="1076.25" y2="665.2"/><line class="cls-1" x1="1119.3" y1="1" x2="1119.3" y2="665.2"/></g></g></svg>