<svg width="36" height="29" viewBox="0 0 36 29" fill="none" xmlns="http://www.w3.org/2000/svg">
<path d="M17.8452 5.15445C12.3357 4.4735 6.98611 11.0612 5 14.4402L7.39881 19.083L11.5774 22.1009L16.4524 23.5711L21.5595 23.0294L25.7381 21.3271L29.375 17.7675L30.8452 13.6663L26.9762 9.02348C26.2282 8.01754 23.3548 5.8354 17.8452 5.15445Z" fill="black"/>
<path d="M18 5C10.3238 5 6.13492 11.1389 5 14.2083C5.87698 17.3294 9.70476 23.5714 18 23.5714C26.2952 23.5714 30.123 17.3294 31 14.2083C29.8651 11.1389 25.6762 5 18 5Z" stroke="black" stroke-width="9"/>
<circle cx="18.0002" cy="14.2858" r="4.2619" fill="black" stroke="white" stroke-width="2"/>
</svg>
