<svg
  width="41"
  height="25"
  viewBox="0 0 41 25"
  fill="none"
  xmlns="http://www.w3.org/2000/svg"
>
<path
    d="M22.705 11.6452C23.265 11.7452 23.74 12.0402 24.13 12.5302C24.52 13.0202 24.715 13.5752 24.715 14.1952C24.715 14.7252 24.575 15.2052 24.295 15.6352C24.025 16.0552 23.63 16.3902 23.11 16.6402C22.59 16.8802 21.985 17.0002 21.295 17.0002H17.125V6.5752H21.1C21.81 6.5752 22.42 6.6952 22.93 6.9352C23.44 7.1752 23.825 7.5002 24.085 7.9102C24.345 8.3102 24.475 8.7602 24.475 9.2602C24.475 9.8602 24.315 10.3602 23.995 10.7602C23.675 11.1602 23.245 11.4552 22.705 11.6452ZM18.835 10.9552H20.95C21.51 10.9552 21.945 10.8302 22.255 10.5802C22.575 10.3202 22.735 9.9502 22.735 9.4702C22.735 9.0002 22.575 8.6352 22.255 8.3752C21.945 8.1052 21.51 7.9702 20.95 7.9702H18.835V10.9552ZM21.145 15.6052C21.725 15.6052 22.18 15.4652 22.51 15.1852C22.84 14.9052 23.005 14.5152 23.005 14.0152C23.005 13.5052 22.83 13.1002 22.48 12.8002C22.13 12.5002 21.665 12.3502 21.085 12.3502H18.835V15.6052H21.145Z"
    fill="black"
  />
<rect
    x="1.5"
    y="1.5"
    width="38"
    fill="none"
    height="21.2409"
    stroke="black"
    stroke-width="3"
  />
</svg>
